<?xml version="1.0" standalone="no"?>
<!DOCTYPE svg PUBLIC "-//W3C//DTD SVG 20010904//EN"
 "http://www.w3.org/TR/2001/REC-SVG-20010904/DTD/svg10.dtd">
<svg version="1.0" xmlns="http://www.w3.org/2000/svg"
 width="120.000000pt" height="120.000000pt" viewBox="0 0 120.000000 120.000000"
 preserveAspectRatio="xMidYMid meet">

<g transform="translate(0.000000,120.000000) scale(0.100000,-0.100000)"
fill="#000000" stroke="#000000">
<path d="M550 1152 c-43 -34 -21 -102 33 -102 14 0 17 -3 9 -12 -10 -13 -24
-65 -27 -101 -1 -11 -7 -22 -14 -26 -9 -6 -9 -23 -3 -66 13 -78 7 -93 -40
-107 -22 -6 -62 -32 -89 -56 l-49 -44 -2 34 c-2 54 2 71 20 93 9 11 25 35 35
53 17 29 17 34 3 48 -9 9 -21 24 -26 35 -6 11 -21 19 -35 19 -20 0 -25 5 -25
24 0 33 -25 53 -46 36 -30 -26 -45 -82 -43 -160 1 -41 -1 -82 -3 -90 -3 -8
-13 -36 -22 -62 -10 -25 -24 -52 -32 -58 -16 -14 -19 -92 -4 -120 13 -25 111
-47 143 -32 55 26 66 23 73 -24 11 -77 19 -47 19 75 0 126 -15 152 -23 41 -3
-42 -8 -60 -18 -60 -8 0 -14 5 -14 12 0 7 -6 6 -17 -4 -26 -22 -67 -43 -59
-29 5 7 -5 11 -26 11 -44 0 -64 17 -72 59 -4 24 -1 40 14 61 11 15 20 34 20
42 0 10 3 9 10 -2 7 -11 10 -3 11 30 0 34 2 40 9 25 5 -11 9 -31 9 -45 1 -28
39 -96 48 -86 3 3 12 27 19 53 7 27 13 38 13 25 2 -44 -22 -113 -43 -129 -20
-14 -20 -15 -1 -8 11 3 25 7 30 8 18 3 25 21 25 62 0 35 6 44 40 69 22 17 40
34 40 39 0 4 5 5 10 2 6 -3 10 -1 10 5 0 14 68 43 86 36 23 -9 17 -51 -10 -65
-17 -10 -29 -32 -44 -85 -27 -92 -40 -192 -24 -182 7 4 12 20 12 36 0 33 24
153 38 191 7 18 32 35 90 62 100 48 125 52 162 30 34 -20 36 -26 16 -43 -19
-15 -37 -71 -46 -140 -7 -53 -7 -54 -15 -21 -6 27 -10 30 -17 17 -11 -19 -2
-54 19 -78 13 -15 13 -19 -6 -39 -28 -30 -27 -34 8 -34 25 0 30 5 36 30 l6 30
31 -54 c35 -60 80 -94 119 -88 24 3 26 1 15 -17 -24 -45 -64 -79 -131 -114
-69 -36 -72 -37 -190 -37 l-120 0 -88 45 c-78 39 -95 53 -138 110 -71 95 -120
274 -91 333 33 66 62 159 62 197 0 41 -1 42 -19 26 -10 -9 -36 -53 -57 -99
-39 -81 -39 -83 -39 -202 l0 -120 45 -78 c50 -89 134 -174 211 -212 138 -71
311 -70 450 1 28 14 91 64 139 111 86 83 89 88 109 163 24 88 29 210 8 210
-32 0 -45 -25 -50 -100 -4 -74 -40 -190 -58 -190 -17 0 -9 30 22 88 27 51 30
63 25 114 l-6 57 49 40 c27 23 57 41 68 41 24 0 63 27 63 44 0 8 -6 19 -14 25
-8 7 -17 27 -20 46 -8 41 -74 115 -102 115 -11 0 -24 10 -29 23 -13 28 -39 29
-43 1 -2 -15 -12 -24 -31 -27 -42 -9 -87 -52 -106 -100 -20 -53 -56 -73 -84
-49 -26 23 -29 61 -7 95 12 18 17 37 13 56 -8 37 18 93 41 90 50 -5 82 26 82
76 0 66 -67 105 -159 92 -22 -3 -47 1 -62 9 -35 19 -103 17 -129 -4z m97 2
c13 -4 20 -10 17 -15 -3 -5 31 -9 76 -9 93 0 136 -17 146 -56 8 -33 -23 -78
-57 -82 -21 -3 -20 -1 9 17 35 23 43 59 17 81 -13 11 -14 10 -9 -4 3 -9 1 -23
-5 -30 -10 -12 -16 -10 -37 11 -27 27 -23 27 -181 7 -77 -10 -105 19 -63 64
21 22 46 27 87 16z m113 -98 c0 -38 -19 -44 -85 -25 -61 17 -60 20 5 38 62 17
80 14 80 -13z m29 -58 c-12 -20 -14 -21 -17 -5 -2 10 2 25 9 34 18 21 23 0 8
-29z m-115 21 c47 -13 96 -47 96 -67 0 -10 -7 -9 -27 6 -35 24 -88 42 -124 42
-21 0 -27 4 -23 15 7 18 25 19 78 4z m20 -53 c30 -12 34 -18 31 -48 -2 -31 8
-48 30 -48 6 0 3 5 -5 10 -9 6 -10 10 -3 10 19 0 26 -20 13 -36 -12 -13 -24
-21 -96 -60 -53 -28 -107 -2 -90 42 4 12 10 13 19 6 13 -11 92 -10 103 1 3 3
-7 17 -22 31 -21 18 -32 21 -42 14 -19 -16 -24 -4 -10 26 9 22 9 32 0 47 -11
17 -9 19 13 19 14 0 41 -6 59 -14z m-373 -31 c1 -19 3 -39 4 -45 1 -5 3 -13 4
-17 1 -5 6 0 12 10 13 23 36 22 49 -3 11 -20 -3 -30 -15 -10 -12 19 -21 10
-23 -25 -3 -40 15 -47 36 -15 7 11 16 20 21 20 17 0 -35 -85 -60 -97 -13 -7
-18 -13 -11 -13 14 0 8 -38 -15 -83 -19 -38 -37 -29 -44 21 -5 38 -3 42 15 42
12 0 16 3 10 8 -23 15 -34 52 -34 112 0 42 3 59 11 54 8 -4 9 3 4 25 -6 27 -4
30 11 24 13 -5 16 -3 11 10 -3 9 -2 17 3 17 6 0 11 -16 11 -35z m296 8 c-4
-27 -17 -43 -34 -43 -14 0 -14 3 2 20 10 11 15 20 11 20 -4 0 -4 5 -1 10 10
16 25 11 22 -7z m458 -83 c43 -21 76 -71 74 -113 -1 -16 -3 -13 -11 12 -15 55
-75 124 -61 71 3 -11 9 -20 14 -20 5 0 9 -19 9 -42 l-1 -43 -17 40 -18 40 -7
-33 c-8 -41 -45 -61 -82 -44 -14 7 -28 19 -31 27 -10 25 5 65 33 91 31 29 25
30 -26 4 -28 -14 -46 -34 -65 -72 -27 -54 -36 -51 -12 5 15 36 37 58 81 81 40
21 70 20 120 -4z m-410 0 c3 -6 -1 -7 -9 -4 -18 7 -21 14 -7 14 6 0 13 -4 16
-10z m47 -73 c-17 -20 -92 -41 -104 -29 -6 6 0 10 16 10 14 0 40 8 58 19 36
22 47 21 30 0z m18 -19 c-1 -12 -115 -70 -147 -74 -9 -2 -13 9 -13 32 0 21 4
33 10 29 6 -3 10 -16 10 -28 0 -15 3 -18 8 -9 6 9 75 42 130 61 1 1 2 -5 2
-11z m210 -69 c53 -8 53 -8 -15 -4 -80 4 -114 13 -94 26 7 4 22 3 33 -3 11 -6
45 -15 76 -19z m235 11 c-3 -5 -16 -10 -28 -11 -21 0 -21 -1 -2 -8 11 -5 -12
-6 -55 -4 -97 6 -111 11 -35 13 33 1 69 5 80 10 28 12 47 12 40 0z m-339 -55
c3 -14 4 -31 1 -39 -3 -7 3 -28 14 -45 l19 -32 -25 -37 c-26 -39 -35 -71 -10
-38 15 19 15 19 15 1 0 -11 16 13 35 53 19 40 36 72 39 72 2 0 2 -17 -1 -39
-9 -67 31 -151 59 -123 6 6 15 31 19 54 6 42 7 42 8 8 1 -36 -30 -100 -49
-100 -6 0 -19 15 -30 33 -11 17 -20 27 -20 21 0 -6 11 -28 25 -48 21 -31 23
-40 13 -61 -29 -65 -123 5 -155 115 -12 42 -17 51 -23 35 -13 -38 -22 34 -10
91 11 51 42 104 61 104 5 0 11 -11 15 -25z m131 19 c-3 -3 -12 -4 -19 -1 -8 3
-5 6 6 6 11 1 17 -2 13 -5z m70 0 c-3 -3 -12 -4 -19 -1 -8 3 -5 6 6 6 11 1 17
-2 13 -5z m-157 -24 c0 -5 6 -10 14 -10 25 0 28 -20 8 -51 -22 -35 -27 -31
-41 29 -7 34 -6 42 5 42 8 0 14 -4 14 -10z m70 -10 c0 -5 5 -10 11 -10 5 0 7
5 4 10 -9 14 18 12 34 -2 8 -7 11 -8 8 -2 -5 8 6 11 32 10 22 0 37 -4 35 -8
-3 -5 -11 -8 -18 -8 -7 0 -25 -13 -41 -30 -16 -16 -26 -30 -23 -30 3 0 0 -24
-7 -52 -14 -63 -36 -70 -49 -17 -7 27 -5 44 7 68 8 17 12 33 7 36 -12 7 -19
45 -9 45 5 0 9 -4 9 -10z"/>
<path d="M680 950 c20 -13 33 -13 25 0 -3 6 -14 10 -23 10 -15 0 -15 -2 -2
-10z"/>
<path d="M660 926 c0 -2 9 -6 20 -9 11 -3 18 -1 14 4 -5 9 -34 13 -34 5z"/>
<path d="M302 905 c0 -16 2 -22 5 -12 2 9 2 23 0 30 -3 6 -5 -1 -5 -18z"/>
<path d="M478 1005 c-89 -24 -164 -75 -111 -75 11 0 24 -5 30 -11 8 -8 19 -6
41 5 16 8 48 18 70 22 25 4 42 13 45 23 3 9 8 24 12 34 9 21 -17 22 -87 2z"/>
<path d="M798 946 c-4 -21 2 -29 42 -54 47 -29 48 -29 75 -12 l26 17 -42 32
c-24 17 -48 31 -55 31 -7 0 -19 3 -27 6 -10 3 -16 -3 -19 -20z"/>
<path d="M540 609 c0 -5 5 -7 10 -4 6 3 10 8 10 11 0 2 -4 4 -10 4 -5 0 -10
-5 -10 -11z"/>
<path d="M590 582 c0 -4 16 -6 35 -4 19 2 35 6 35 8 0 2 -16 4 -35 4 -19 0
-35 -4 -35 -8z"/>
<path d="M618 563 c7 -3 16 -2 19 1 4 3 -2 6 -13 5 -11 0 -14 -3 -6 -6z"/>
<path d="M510 520 c0 -5 5 -10 10 -10 6 0 10 5 10 10 0 6 -4 10 -10 10 -5 0
-10 -4 -10 -10z"/>
<path d="M495 420 c-3 -5 -1 -10 4 -10 6 0 11 5 11 10 0 6 -2 10 -4 10 -3 0
-8 -4 -11 -10z"/>
</g>
</svg>
