<?xml version="1.0" standalone="no"?>
<!DOCTYPE svg PUBLIC "-//W3C//DTD SVG 20010904//EN"
 "http://www.w3.org/TR/2001/REC-SVG-20010904/DTD/svg10.dtd">
<svg version="1.0" xmlns="http://www.w3.org/2000/svg"
 width="1000.000000pt" height="1000.000000pt" viewBox="0 0 1000.000000 1000.000000"
 preserveAspectRatio="xMidYMid meet">
<metadata>
Created by potrace 1.15, written by Peter Selinger 2001-2017
</metadata>
<g transform="translate(0.000000,1000.000000) scale(0.100000,-0.100000)"
fill="#000000" stroke="none">
<path d="M2995 7635 c-24 -23 -25 -28 -25 -170 0 -142 1 -147 25 -170 13 -14
33 -25 45 -25 11 0 20 -1 20 -2 0 -2 74 -325 163 -718 l163 -715 -17 -35 c-10
-19 -154 -384 -320 -810 l-303 -775 -4 -301 c-4 -337 -3 -347 62 -378 31 -15
216 -16 2196 -16 2390 0 2208 -5 2245 63 15 29 16 63 13 332 l-5 300 -304 780
-305 780 52 210 c28 115 115 468 193 783 l141 574 0 134 c0 130 -1 136 -25
159 l-24 25 -1981 0 -1981 0 -24 -25z m1706 -402 c18 -55 90 -126 162 -159 57
-27 71 -29 177 -29 103 0 121 3 171 26 76 36 132 89 158 149 l22 50 729 0
c402 0 730 -3 730 -7 0 -5 -77 -322 -172 -706 l-172 -697 -1485 2 -1484 3
-158 695 c-87 382 -159 698 -159 703 0 4 330 7 734 7 l734 0 13 -37z m-772
-1528 c-3 -2 -45 -19 -95 -38 -120 -46 -282 -128 -373 -189 -51 -34 -72 -44
-67 -31 4 10 28 73 54 141 l47 122 219 0 c121 0 217 -2 215 -5z m1441 -15
c625 -71 1131 -289 1331 -573 110 -158 124 -292 48 -488 -51 -133 -145 -262
-258 -356 l-65 -53 -521 0 c-474 0 -523 -2 -545 -17 -34 -23 -46 -41 -60 -88
-22 -74 -75 -132 -160 -173 -47 -23 -68 -27 -140 -27 -71 0 -94 4 -142 27 -75
35 -130 93 -157 167 -13 36 -34 70 -52 85 l-31 26 -520 0 -520 0 -47 34 c-130
95 -250 268 -300 429 -62 203 -20 357 144 522 248 250 728 433 1270 485 61 5
128 12 150 14 70 7 477 -3 575 -14z m1186 -115 c29 -71 53 -133 53 -137 1 -4
-36 17 -81 46 -100 65 -230 130 -358 181 -52 20 -97 39 -99 41 -3 2 94 3 214
2 l219 -3 52 -130z m-3466 -958 c0 -32 115 -239 173 -312 l65 -80 -201 -3
c-110 -1 -202 -1 -204 1 -2 2 32 95 74 205 70 182 93 228 93 189z m3913 -189
c42 -110 76 -203 74 -205 -2 -2 -95 -2 -207 -1 l-202 3 39 45 c78 89 163 232
192 323 7 20 16 37 19 37 4 0 42 -91 85 -202z"/>
<path d="M4240 7090 c-30 -30 -26 -80 10 -125 72 -91 65 -176 -25 -288 -67
-83 -90 -148 -89 -249 1 -65 6 -87 33 -142 41 -84 92 -130 135 -122 36 7 66
39 66 71 0 12 -11 37 -25 56 -40 55 -55 95 -55 149 0 58 18 98 68 154 80 89
111 226 78 341 -20 65 -36 96 -80 143 -36 38 -84 44 -116 12z"/>
<path d="M3787 6860 c-21 -17 -27 -30 -27 -60 0 -23 6 -43 17 -51 22 -19 63
-108 63 -139 0 -50 -22 -102 -67 -157 -129 -158 -133 -351 -9 -486 43 -47 93
-52 125 -11 29 37 26 60 -16 121 -28 41 -37 66 -41 107 -6 72 9 111 69 182 92
109 115 261 57 385 -53 111 -116 152 -171 109z"/>
<path d="M4637 6860 c-37 -30 -37 -79 2 -128 73 -93 64 -193 -24 -291 -60 -66
-89 -144 -89 -236 0 -69 4 -90 30 -145 42 -89 82 -130 127 -130 26 0 41 7 56
26 29 37 26 60 -16 122 -35 51 -38 59 -38 127 0 79 -7 64 96 199 87 115 74
318 -27 434 -38 42 -80 51 -117 22z"/>
<path d="M4775 5624 c-124 -32 -186 -73 -221 -147 -13 -29 -24 -65 -24 -82 0
-16 11 -53 24 -82 28 -60 81 -103 159 -130 69 -24 195 -24 264 0 61 21 140 88
159 134 18 42 18 114 0 156 -18 45 -97 112 -154 132 -48 17 -171 28 -207 19z
m165 -170 c74 -30 77 -79 6 -113 -96 -47 -251 -13 -251 54 0 64 145 99 245 59z"/>
<path d="M5519 5537 c-194 -55 -265 -225 -148 -352 119 -129 366 -135 497 -11
114 106 81 261 -72 336 -53 26 -79 33 -148 36 -50 2 -101 -1 -129 -9z m210
-166 c64 -32 66 -61 7 -105 -42 -32 -152 -35 -211 -6 -82 40 -68 98 32 126 56
16 124 10 172 -15z"/>
<path d="M3932 5452 c-91 -33 -164 -106 -178 -178 -27 -142 114 -264 304 -264
187 0 311 92 312 231 0 83 -42 142 -133 188 -61 31 -79 35 -160 38 -71 3 -104
-1 -145 -15z m231 -156 c48 -20 67 -58 42 -86 -49 -54 -187 -65 -260 -20 -117
73 74 166 218 106z"/>
<path d="M6244 5230 c-93 -19 -189 -90 -215 -157 -13 -35 -11 -109 5 -146 19
-46 98 -113 159 -134 36 -13 80 -18 144 -18 85 1 97 4 160 35 248 127 151 408
-147 425 -36 2 -84 0 -106 -5z m191 -173 c51 -29 55 -68 12 -101 -43 -32 -161
-35 -221 -6 -53 25 -66 52 -39 82 46 53 176 66 248 25z"/>
<path d="M4576 5139 c-20 -16 -26 -29 -26 -58 0 -36 23 -71 47 -71 5 0 20 -11
33 -25 12 -13 39 -30 59 -36 20 -6 45 -20 56 -30 30 -26 75 -41 107 -34 64 14
90 86 46 126 -46 42 -102 80 -127 86 -14 3 -35 13 -46 23 -52 45 -107 52 -149
19z"/>
<path d="M5122 4915 c-63 -28 -63 -103 2 -145 17 -11 45 -29 61 -40 17 -11 40
-20 53 -20 12 0 22 -5 22 -10 0 -19 64 -50 103 -50 45 0 87 36 87 73 0 26 -35
77 -52 77 -6 0 -26 14 -45 30 -18 17 -42 30 -52 30 -10 0 -35 14 -56 30 -21
17 -44 30 -51 30 -7 0 -18 2 -26 5 -7 2 -28 -2 -46 -10z"/>
<path d="M3735 4837 c-135 -35 -215 -118 -215 -222 0 -64 20 -104 74 -152 65
-57 129 -78 241 -78 77 1 99 5 153 29 259 119 168 409 -136 431 -39 3 -88 -1
-117 -8z m192 -166 c56 -26 69 -51 43 -84 -42 -54 -176 -68 -249 -26 -49 27
-60 53 -34 81 44 50 162 64 240 29z"/>
<path d="M4562 4810 c-18 -11 -39 -20 -47 -20 -8 0 -31 -15 -51 -32 -21 -18
-51 -37 -68 -43 -34 -11 -76 -66 -76 -100 0 -12 9 -34 21 -49 25 -32 64 -34
116 -6 21 11 43 20 50 20 6 0 24 13 39 30 16 16 40 32 55 35 52 12 96 84 79
129 -10 27 -46 56 -70 56 -8 0 -30 -9 -48 -20z"/>
<path d="M5750 4755 c-234 -66 -272 -309 -65 -413 165 -82 397 -27 464 111 72
150 -58 302 -267 313 -50 3 -96 -1 -132 -11z m197 -157 c44 -13 76 -54 62 -79
-27 -51 -166 -77 -242 -45 -46 19 -74 53 -61 74 39 60 138 82 241 50z"/>
<path d="M4873 4592 c-69 -25 -118 -59 -151 -106 -23 -33 -27 -49 -27 -107 0
-92 33 -140 129 -189 66 -34 73 -35 176 -35 103 0 110 1 175 35 84 44 126 96
133 169 6 64 -10 104 -61 158 -58 61 -123 86 -232 90 -69 3 -102 -1 -142 -15z
m230 -156 c67 -32 71 -70 11 -107 -42 -26 -126 -35 -183 -19 -43 11 -91 49
-91 70 0 18 50 59 84 70 45 14 135 6 179 -14z"/>
</g>
</svg>
